<?xml version="1.0" encoding="UTF-8"?>
<svg id="Layer_1" data-name="Layer 1" xmlns="http://www.w3.org/2000/svg" viewBox="0 0 681.2108 586">
  <defs>
    <style>
      .cls-1 {
        fill: #fff;
      }

      .cls-2 {
        fill: none;
      }
    </style>
  </defs>
  <path class="cls-2" d="M456.2786,272.6026h-6c-4,9.33-8,18.67-12,28h30c-4-9.33-8-18.67-12-28Zm0,0h-6c-4,9.33-8,18.67-12,28h30c-4-9.33-8-18.67-12-28Zm0,0h-6c-4,9.33-8,18.67-12,28h30c-4-9.33-8-18.67-12-28Zm0,0h-6c-4,9.33-8,18.67-12,28h30c-4-9.33-8-18.67-12-28Zm0,0h-6c-4,9.33-8,18.67-12,28h30c-4-9.33-8-18.67-12-28Zm0,0h-6c-4,9.33-8,18.67-12,28h30c-4-9.33-8-18.67-12-28Zm0,0h-6c-4,9.33-8,18.67-12,28h30c-4-9.33-8-18.67-12-28Zm0,0h-6c-4,9.33-8,18.67-12,28h30c-4-9.33-8-18.67-12-28Zm168.2-55.4C591.2186,91.9227,477.0286-.3974,341.2786-.3974,204.1686-.3974,89.0586,93.7826,57.1086,220.9726c-5.77,22.92-8.83,46.92-8.83,71.63,0,26.52,3.52,52.21,10.13,76.64,33.68,124.65,147.57,216.36,282.87,216.36,135.06,0,248.78-91.38,282.69-215.69,6.72-24.63,10.31-50.55,10.31-77.31,0-26.07-3.4-51.34-9.8-75.4Zm-89.2,56.4v59h-18c-.67-25.67-1.33-51.33-2-77h34c4.09,6.29,8.17,12.57,12.26,18.86v.01c8.92,13.71,17.83,27.42,26.74,41.13v-61h18c.33,26,.67,52,1,78h-33c-4.31-6.52-8.62-13.05-12.94-19.57v-.01c-8.69-13.14-17.37-26.28-26.06-39.42ZM341.2786,71.6026c92.6,0,171.9,56.95,204.78,137.74-66.41-5.51-138.23-8.56-214.78-7.74-69.49,.75-134.94,4.6-195.86,10.47,32.19-82.23,112.23-140.47,205.86-140.47Zm163,261h-23c-2.33-5-4.67-10-7-15h-43c-2.33,4.67-4.67,9.33-7,14h-22c11-25.33,22-50.67,33-76h35c11.33,25.67,22.67,51.33,34,77Zm-131-28c-14.09-1-23.86-1.66-29-2-13.17-.88-18.05-1.16-23-5-6.92-5.37-8.6-13.51-9-16-1.43-8.92,1.79-18.43,8-24,6.29-5.65,13.46-5.22,35-5,8.82,.09,22.6,.17,40,0v19h-58c-.2,.15-2,1.55-2,4,0,.25,.04,2.53,2,4,15.15,3.34,27.31,4.55,36,5,6.1,.32,11.26,.31,16,4,7.83,6.1,8.04,17.28,8,20-.03,1.98-.21,12.95-8,19-5.42,4.21-11.96,4.06-15,4-14.72-.29-35.27-.12-61,0v-16c20.33-.33,40.67-.67,61-1,.27-.25,2.18-2.11,2-5-.19-3.19-2.75-4.84-3-5Zm-97,0c-14.09-1-23.86-1.66-29-2-13.17-.88-18.05-1.16-23-5-6.92-5.37-8.6-13.51-9-16-1.43-8.92,1.79-18.43,8-24,5.97-5.36,12.63-5.11,35-5,7.53,.04,20.72,.08,38,0v18c-18.67,.33-37.33,.67-56,1-.2,.15-2,1.55-2,4,0,.25,.04,2.53,2,4,15.15,3.34,27.31,4.55,36,5,6.1,.32,11.26,.31,16,4,7.83,6.1,8.04,17.28,8,20-.03,1.98-.21,12.95-8,19-5.42,4.21-11.96,4.06-15,4-14.72-.29-35.27-.12-61,0v-16c20.33-.33,40.67-.67,61-1,.27-.25,2.18-2.11,2-5-.19-3.19-2.75-4.84-3-5Zm-77-50v76h-20v-76h20Zm-77.46,64.21v-.0099c-10.18-15.4-20.36-30.8-30.54-46.2-.33,19.33-.67,38.67-1,58h-19c.33-25.67,.67-51.33,1-77h33c5.18,7.78,10.37,15.55,15.55,23.33,8.15,12.22,16.3,24.45,24.45,36.67,.33-19.67,.67-39.33,1-59h18v77h-34c-2.82-4.26-5.64-8.53-8.46-12.79Zm219.46,194.79c-92.51,0-171.76-56.85-204.69-137.53,58.42,4.29,120.08,7,184.69,7.53,79.28,.65,154.29-2.06,224.49-7.04-33.05,80.41-112.16,137.04-204.49,137.04Zm115-241h-6c-4,9.33-8,18.67-12,28h30c-4-9.33-8-18.67-12-28Zm0,0h-6c-4,9.33-8,18.67-12,28h30c-4-9.33-8-18.67-12-28Zm0,0h-6c-4,9.33-8,18.67-12,28h30c-4-9.33-8-18.67-12-28Zm0,0h-6c-4,9.33-8,18.67-12,28h30c-4-9.33-8-18.67-12-28Zm0,0h-6c-4,9.33-8,18.67-12,28h30c-4-9.33-8-18.67-12-28Zm0,0h-6c-4,9.33-8,18.67-12,28h30c-4-9.33-8-18.67-12-28Zm0,0h-6c-4,9.33-8,18.67-12,28h30c-4-9.33-8-18.67-12-28Zm0,0h-6c-4,9.33-8,18.67-12,28h30c-4-9.33-8-18.67-12-28Zm0,0h-6c-4,9.33-8,18.67-12,28h30c-4-9.33-8-18.67-12-28Z"/>
  <path class="cls-2" d="M456.2786,272.6026h-6c-4,9.33-8,18.67-12,28h30c-4-9.33-8-18.67-12-28Zm0,0h-6c-4,9.33-8,18.67-12,28h30c-4-9.33-8-18.67-12-28Zm0,0h-6c-4,9.33-8,18.67-12,28h30c-4-9.33-8-18.67-12-28Zm0,0h-6c-4,9.33-8,18.67-12,28h30c-4-9.33-8-18.67-12-28Zm0,0h-6c-4,9.33-8,18.67-12,28h30c-4-9.33-8-18.67-12-28Zm0,0h-6c-4,9.33-8,18.67-12,28h30c-4-9.33-8-18.67-12-28Zm0,0h-6c-4,9.33-8,18.67-12,28h30c-4-9.33-8-18.67-12-28Zm0,0h-6c-4,9.33-8,18.67-12,28h30c-4-9.33-8-18.67-12-28Zm79,60h-18c-.67-25.67-1.33-51.33-2-77h34c4.09,6.29,8.17,12.57,12.26,18.86-1.85-22.87-7.19-44.75-15.48-65.12-66.41-5.51-138.23-8.56-214.78-7.74-69.49,.75-134.94,4.6-195.86,10.47-7.96,20.32-13,42.12-14.59,64.86,8.15,12.22,16.3,24.45,24.45,36.67,.33-19.67,.67-39.33,1-59h18v77h-34c-2.82-4.26-5.64-8.53-8.46-12.79,2.37,20.03,7.41,39.2401,14.77,57.26,58.42,4.29,120.08,7,184.69,7.53,79.28,.65,154.29-2.06,224.49-7.04,8.17-19.89,13.53-41.23,15.57-63.53v-.01c-8.69-13.14-17.37-26.28-26.06-39.42v59Zm-336-2h-20v-76h20v76Zm101-22c-.03,1.98-.21,12.95-8,19-5.42,4.21-11.96,4.06-15,4-14.72-.29-35.27-.12-61,0v-16c20.33-.33,40.67-.67,61-1,.27-.25,2.18-2.11,2-5-.19-3.19-2.75-4.84-3-5-14.09-1-23.86-1.66-29-2-13.17-.88-18.05-1.16-23-5-6.92-5.37-8.6-13.51-9-16-1.43-8.92,1.79-18.43,8-24,5.97-5.36,12.63-5.11,35-5,7.53,.04,20.72,.08,38,0v18c-18.67,.33-37.33,.67-56,1-.2,.15-2,1.55-2,4,0,.25,.04,2.53,2,4,15.15,3.34,27.31,4.55,36,5,6.1,.32,11.26,.31,16,4,7.83,6.1,8.04,17.28,8,20Zm97,0c-.03,1.98-.21,12.95-8,19-5.42,4.21-11.96,4.06-15,4-14.72-.29-35.27-.12-61,0v-16c20.33-.33,40.67-.67,61-1,.27-.25,2.18-2.11,2-5-.19-3.19-2.75-4.84-3-5-14.09-1-23.86-1.66-29-2-13.17-.88-18.05-1.16-23-5-6.92-5.37-8.6-13.51-9-16-1.43-8.92,1.79-18.43,8-24,6.29-5.65,13.46-5.22,35-5,8.82,.09,22.6,.17,40,0v19h-58c-.2,.15-2,1.55-2,4,0,.25,.04,2.53,2,4,15.15,3.34,27.31,4.55,36,5,6.1,.32,11.26,.31,16,4,7.83,6.1,8.04,17.28,8,20Zm84,24c-2.33-5-4.67-10-7-15h-43c-2.33,4.67-4.67,9.33-7,14h-22c11-25.33,22-50.67,33-76h35c11.33,25.67,22.67,51.33,34,77h-23Zm-31-60c-4,9.33-8,18.67-12,28h30c-4-9.33-8-18.67-12-28h-6Zm6,0h-6c-4,9.33-8,18.67-12,28h30c-4-9.33-8-18.67-12-28Zm0,0h-6c-4,9.33-8,18.67-12,28h30c-4-9.33-8-18.67-12-28Zm0,0h-6c-4,9.33-8,18.67-12,28h30c-4-9.33-8-18.67-12-28Zm0,0h-6c-4,9.33-8,18.67-12,28h30c-4-9.33-8-18.67-12-28Zm0,0h-6c-4,9.33-8,18.67-12,28h30c-4-9.33-8-18.67-12-28Zm0,0h-6c-4,9.33-8,18.67-12,28h30c-4-9.33-8-18.67-12-28Zm0,0h-6c-4,9.33-8,18.67-12,28h30c-4-9.33-8-18.67-12-28Zm0,0h-6c-4,9.33-8,18.67-12,28h30c-4-9.33-8-18.67-12-28Z"/>
  <path class="cls-2" d="M456.2786,272.6026h-6c-4,9.33-8,18.67-12,28h30c-4-9.33-8-18.67-12-28Zm0,0h-6c-4,9.33-8,18.67-12,28h30c-4-9.33-8-18.67-12-28Zm0,0h-6c-4,9.33-8,18.67-12,28h30c-4-9.33-8-18.67-12-28Zm0,0h-6c-4,9.33-8,18.67-12,28h30c-4-9.33-8-18.67-12-28Zm0,0h-6c-4,9.33-8,18.67-12,28h30c-4-9.33-8-18.67-12-28Zm0,0h-6c-4,9.33-8,18.67-12,28h30c-4-9.33-8-18.67-12-28Zm0,0h-6c-4,9.33-8,18.67-12,28h30c-4-9.33-8-18.67-12-28Zm0,0h-6c-4,9.33-8,18.67-12,28h30c-4-9.33-8-18.67-12-28Zm218-49c-16.16-2.26-32.76-4.4-49.8-6.4-25.21-2.97-51.36-5.62-78.42-7.86-66.41-5.51-138.23-8.56-214.78-7.74-69.49,.75-134.94,4.6-195.86,10.47-27.01,2.6-53.13,5.6-78.31,8.9-15.99,2.1-31.61,4.31-46.83,6.63C5.6386,244.1226,1.2086,265.8726,.2786,291.6026c-1.05,29.25,2.78,53.92,7,72,16.7,2,33.75,3.88,51.13,5.64,25.36,2.5699,51.43,4.87,78.18,6.83,58.42,4.29,120.08,7,184.69,7.53,79.28,.65,154.29-2.06,224.49-7.04,26.78-1.91,52.85-4.14,78.2-6.65,16.76-1.66,33.2-3.43,49.31-5.31,4.08-18.29,7.62-41.32,8-68,.42-28.86-2.97-53.67-7-73Zm-510,108h-34c-2.82-4.26-5.64-8.53-8.46-12.79v-.0099c-10.18-15.4-20.36-30.8-30.54-46.2-.33,19.33-.67,38.67-1,58h-19c.33-25.67,.67-51.33,1-77h33c5.18,7.78,10.37,15.55,15.55,23.33,8.15,12.22,16.3,24.45,24.45,36.67,.33-19.67,.67-39.33,1-59h18v77Zm35-1h-20v-76h20v76Zm101-22c-.03,1.98-.21,12.95-8,19-5.42,4.21-11.96,4.06-15,4-14.72-.29-35.27-.12-61,0v-16c20.33-.33,40.67-.67,61-1,.27-.25,2.18-2.11,2-5-.19-3.19-2.75-4.84-3-5-14.09-1-23.86-1.66-29-2-13.17-.88-18.05-1.16-23-5-6.92-5.37-8.6-13.51-9-16-1.43-8.92,1.79-18.43,8-24,5.97-5.36,12.63-5.11,35-5,7.53,.04,20.72,.08,38,0v18c-18.67,.33-37.33,.67-56,1-.2,.15-2,1.55-2,4,0,.25,.04,2.53,2,4,15.15,3.34,27.31,4.55,36,5,6.1,.32,11.26,.31,16,4,7.83,6.1,8.04,17.28,8,20Zm97,0c-.03,1.98-.21,12.95-8,19-5.42,4.21-11.96,4.06-15,4-14.72-.29-35.27-.12-61,0v-16c20.33-.33,40.67-.67,61-1,.27-.25,2.18-2.11,2-5-.19-3.19-2.75-4.84-3-5-14.09-1-23.86-1.66-29-2-13.17-.88-18.05-1.16-23-5-6.92-5.37-8.6-13.51-9-16-1.43-8.92,1.79-18.43,8-24,6.29-5.65,13.46-5.22,35-5,8.82,.09,22.6,.17,40,0v19h-58c-.2,.15-2,1.55-2,4,0,.25,.04,2.53,2,4,15.15,3.34,27.31,4.55,36,5,6.1,.32,11.26,.31,16,4,7.83,6.1,8.04,17.28,8,20Zm84,24c-2.33-5-4.67-10-7-15h-43c-2.33,4.67-4.67,9.33-7,14h-22c11-25.33,22-50.67,33-76h35c11.33,25.67,22.67,51.33,34,77h-23Zm93,0c-4.31-6.52-8.62-13.05-12.94-19.57v-.01c-8.69-13.14-17.37-26.28-26.06-39.42v59h-18c-.67-25.67-1.33-51.33-2-77h34c4.09,6.29,8.17,12.57,12.26,18.86v.01c8.92,13.71,17.83,27.42,26.74,41.13v-61h18c.33,26,.67,52,1,78h-33Zm-124-60c-4,9.33-8,18.67-12,28h30c-4-9.33-8-18.67-12-28h-6Zm6,0h-6c-4,9.33-8,18.67-12,28h30c-4-9.33-8-18.67-12-28Zm0,0h-6c-4,9.33-8,18.67-12,28h30c-4-9.33-8-18.67-12-28Zm0,0h-6c-4,9.33-8,18.67-12,28h30c-4-9.33-8-18.67-12-28Zm0,0h-6c-4,9.33-8,18.67-12,28h30c-4-9.33-8-18.67-12-28Zm0,0h-6c-4,9.33-8,18.67-12,28h30c-4-9.33-8-18.67-12-28Zm0,0h-6c-4,9.33-8,18.67-12,28h30c-4-9.33-8-18.67-12-28Zm0,0h-6c-4,9.33-8,18.67-12,28h30c-4-9.33-8-18.67-12-28Zm0,0h-6c-4,9.33-8,18.67-12,28h30c-4-9.33-8-18.67-12-28Z"/>
  <path class="cls-2" d="M468.2786,300.6026h-30c4-9.33,8-18.67,12-28h6c4,9.33,8,18.67,12,28Z"/>
  <path class="cls-2" d="M468.2786,300.6026h-30c4-9.33,8-18.67,12-28h6c4,9.33,8,18.67,12,28Z"/>
  <path d="M456.2786,272.6026h-6c-4,9.33-8,18.67-12,28h30c-4-9.33-8-18.67-12-28Zm0,0h-6c-4,9.33-8,18.67-12,28h30c-4-9.33-8-18.67-12-28Zm0,0h-6c-4,9.33-8,18.67-12,28h30c-4-9.33-8-18.67-12-28Zm0,0h-6c-4,9.33-8,18.67-12,28h30c-4-9.33-8-18.67-12-28Zm0,0h-6c-4,9.33-8,18.67-12,28h30c-4-9.33-8-18.67-12-28Zm0,0h-6c-4,9.33-8,18.67-12,28h30c-4-9.33-8-18.67-12-28Zm0,0h-6c-4,9.33-8,18.67-12,28h30c-4-9.33-8-18.67-12-28Zm0,0h-6c-4,9.33-8,18.67-12,28h30c-4-9.33-8-18.67-12-28Zm218-49c-16.16-2.26-32.76-4.4-49.8-6.4C591.2186,91.9227,477.0286-.3974,341.2786-.3974,204.1686-.3974,89.0586,93.7826,57.1086,220.9726c-15.99,2.1-31.61,4.31-46.83,6.63C5.6386,244.1226,1.2086,265.8726,.2786,291.6026c-1.05,29.25,2.78,53.92,7,72,16.7,2,33.75,3.88,51.13,5.64,33.68,124.65,147.57,216.36,282.87,216.36,135.06,0,248.78-91.38,282.69-215.69,16.76-1.66,33.2-3.43,49.31-5.31,4.08-18.29,7.62-41.32,8-68,.42-28.86-2.97-53.67-7-73Zm-139,50v59h-18c-.67-25.67-1.33-51.33-2-77h34c4.09,6.29,8.17,12.57,12.26,18.86v.01c8.92,13.71,17.83,27.42,26.74,41.13v-61h18c.33,26,.67,52,1,78h-33c-4.31-6.52-8.62-13.05-12.94-19.57v-.01c-8.69-13.14-17.37-26.28-26.06-39.42ZM341.2786,71.6026c92.6,0,171.9,56.95,204.78,137.74-66.41-5.51-138.23-8.56-214.78-7.74-69.49,.75-134.94,4.6-195.86,10.47,32.19-82.23,112.23-140.47,205.86-140.47Zm163,261h-23c-2.33-5-4.67-10-7-15h-43c-2.33,4.67-4.67,9.33-7,14h-22c11-25.33,22-50.67,33-76h35c11.33,25.67,22.67,51.33,34,77Zm-131-28c-14.09-1-23.86-1.66-29-2-13.17-.88-18.05-1.16-23-5-6.92-5.37-8.6-13.51-9-16-1.43-8.92,1.79-18.43,8-24,6.29-5.65,13.46-5.22,35-5,8.82,.09,22.6,.17,40,0v19h-58c-.2,.15-2,1.55-2,4,0,.25,.04,2.53,2,4,15.15,3.34,27.31,4.55,36,5,6.1,.32,11.26,.31,16,4,7.83,6.1,8.04,17.28,8,20-.03,1.98-.21,12.95-8,19-5.42,4.21-11.96,4.06-15,4-14.72-.29-35.27-.12-61,0v-16c20.33-.33,40.67-.67,61-1,.27-.25,2.18-2.11,2-5-.19-3.19-2.75-4.84-3-5Zm-97,0c-14.09-1-23.86-1.66-29-2-13.17-.88-18.05-1.16-23-5-6.92-5.37-8.6-13.51-9-16-1.43-8.92,1.79-18.43,8-24,5.97-5.36,12.63-5.11,35-5,7.53,.04,20.72,.08,38,0v18c-18.67,.33-37.33,.67-56,1-.2,.15-2,1.55-2,4,0,.25,.04,2.53,2,4,15.15,3.34,27.31,4.55,36,5,6.1,.32,11.26,.31,16,4,7.83,6.1,8.04,17.28,8,20-.03,1.98-.21,12.95-8,19-5.42,4.21-11.96,4.06-15,4-14.72-.29-35.27-.12-61,0v-16c20.33-.33,40.67-.67,61-1,.27-.25,2.18-2.11,2-5-.19-3.19-2.75-4.84-3-5Zm-77-50v76h-20v-76h20Zm-77.46,64.21v-.0099c-10.18-15.4-20.36-30.8-30.54-46.2-.33,19.33-.67,38.67-1,58h-19c.33-25.67,.67-51.33,1-77h33c5.18,7.78,10.37,15.55,15.55,23.33,8.15,12.22,16.3,24.45,24.45,36.67,.33-19.67,.67-39.33,1-59h18v77h-34c-2.82-4.26-5.64-8.53-8.46-12.79Zm219.46,194.79c-92.51,0-171.76-56.85-204.69-137.53,58.42,4.29,120.08,7,184.69,7.53,79.28,.65,154.29-2.06,224.49-7.04-33.05,80.41-112.16,137.04-204.49,137.04Zm115-241h-6c-4,9.33-8,18.67-12,28h30c-4-9.33-8-18.67-12-28Zm0,0h-6c-4,9.33-8,18.67-12,28h30c-4-9.33-8-18.67-12-28Zm0,0h-6c-4,9.33-8,18.67-12,28h30c-4-9.33-8-18.67-12-28Zm0,0h-6c-4,9.33-8,18.67-12,28h30c-4-9.33-8-18.67-12-28Zm0,0h-6c-4,9.33-8,18.67-12,28h30c-4-9.33-8-18.67-12-28Zm0,0h-6c-4,9.33-8,18.67-12,28h30c-4-9.33-8-18.67-12-28Zm0,0h-6c-4,9.33-8,18.67-12,28h30c-4-9.33-8-18.67-12-28Zm0,0h-6c-4,9.33-8,18.67-12,28h30c-4-9.33-8-18.67-12-28Zm0,0h-6c-4,9.33-8,18.67-12,28h30c-4-9.33-8-18.67-12-28Z"/>
  <path class="cls-1" d="M607.2786,332.6026h-33c-4.31-6.52-8.62-13.05-12.94-19.57v-.01c-8.69-13.14-17.37-26.28-26.06-39.42v59h-18c-.67-25.67-1.33-51.33-2-77h34c4.09,6.29,8.17,12.57,12.26,18.86v.01c8.92,13.71,17.83,27.42,26.74,41.13v-61h18c.33,26,.67,52,1,78Z"/>
  <path class="cls-1" d="M470.2786,255.6026h-35c-11,25.33-22,50.67-33,76h22c2.33-4.67,4.67-9.33,7-14h43c2.33,5,4.67,10,7,15h23c-11.33-25.67-22.67-51.33-34-77Zm-32,45c4-9.33,8-18.67,12-28h6c4,9.33,8,18.67,12,28h-30Z"/>
  <path class="cls-1" d="M397.2786,308.6026c-.03,1.98-.21,12.95-8,19-5.42,4.21-11.96,4.06-15,4-14.72-.29-35.27-.12-61,0v-16c20.33-.33,40.67-.67,61-1,.27-.25,2.18-2.11,2-5-.19-3.19-2.75-4.84-3-5-14.09-1-23.86-1.66-29-2-13.17-.88-18.05-1.16-23-5-6.92-5.37-8.6-13.51-9-16-1.43-8.92,1.79-18.43,8-24,6.29-5.65,13.46-5.22,35-5,8.82,.09,22.6,.17,40,0v19h-58c-.2,.15-2,1.55-2,4,0,.25,.04,2.53,2,4,15.15,3.34,27.31,4.55,36,5,6.1,.32,11.26,.31,16,4,7.83,6.1,8.04,17.28,8,20Z"/>
  <path class="cls-1" d="M300.2786,308.6026c-.03,1.98-.21,12.95-8,19-5.42,4.21-11.96,4.06-15,4-14.72-.29-35.27-.12-61,0v-16c20.33-.33,40.67-.67,61-1,.27-.25,2.18-2.11,2-5-.19-3.19-2.75-4.84-3-5-14.09-1-23.86-1.66-29-2-13.17-.88-18.05-1.16-23-5-6.92-5.37-8.6-13.51-9-16-1.43-8.92,1.79-18.43,8-24,5.97-5.36,12.63-5.11,35-5,7.53,.04,20.72,.08,38,0v18c-18.67,.33-37.33,.67-56,1-.2,.15-2,1.55-2,4,0,.25,.04,2.53,2,4,15.15,3.34,27.31,4.55,36,5,6.1,.32,11.26,.31,16,4,7.83,6.1,8.04,17.28,8,20Z"/>
  <rect class="cls-1" x="179.2786" y="254.6026" width="20" height="76"/>
  <path class="cls-1" d="M164.2786,254.6026v77h-34c-2.82-4.26-5.64-8.53-8.46-12.79v-.0099c-10.18-15.4-20.36-30.8-30.54-46.2-.33,19.33-.67,38.67-1,58h-19c.33-25.67,.67-51.33,1-77h33c5.18,7.78,10.37,15.55,15.55,23.33,8.15,12.22,16.3,24.45,24.45,36.67,.33-19.67,.67-39.33,1-59h18Z"/>
</svg>